HIERARCHY
ROOT joint_Root
{
  OFFSET 0 0 0
  CHANNELS 6 Xposition Yposition Zposition Zrotation Xrotation Yrotation
  JOINT Hips
  {
    OFFSET 0 93.9241 -3
    CHANNELS 6 Xposition Yposition Zposition Zrotation Xrotation Yrotation
    JOINT Spine
    {
      OFFSET 15.7357 0 0
      CHANNELS 6 Xposition Yposition Zposition Zrotation Xrotation Yrotation
      JOINT Chest
      {
        OFFSET 8.98455 -0.406207 0
        CHANNELS 6 Xposition Yposition Zposition Zrotation Xrotation Yrotation
        JOINT Neck
        {
          OFFSET 16.3773 0 0
          CHANNELS 6 Xposition Yposition Zposition Zrotation Xrotation Yrotation
          JOINT Head
          {
            OFFSET 6.45672 0 0
            CHANNELS 6 Xposition Yposition Zposition Zrotation Xrotation Yrotation
            End Site
            {
              OFFSET 0 0 0
            }
          }
        }
        JOINT Shoulder_L
        {
          OFFSET 12.9942 -0.242716 4.98039
          CHANNELS 6 Xposition Yposition Zposition Zrotation Xrotation Yrotation
          JOINT UpperArm_L
          {
            OFFSET 5.34809 0 0
            CHANNELS 6 Xposition Yposition Zposition Zrotation Xrotation Yrotation
            JOINT LowerArm_L
            {
              OFFSET 24.3286 1.87007e-05 0
              CHANNELS 6 Xposition Yposition Zposition Zrotation Xrotation Yrotation
              JOINT Hand_L
              {
                OFFSET 22.2916 0 0
                CHANNELS 6 Xposition Yposition Zposition Zrotation Xrotation Yrotation
                End Site
                {
                  OFFSET 0 0 0
                }
              }
            }
          }
        }
        JOINT Shoulder_R
        {
          OFFSET 12.9945 -0.242716 -4.98039
          CHANNELS 6 Xposition Yposition Zposition Zrotation Xrotation Yrotation
          JOINT UpperArm_R
          {
            OFFSET -5.34813 0 0
            CHANNELS 6 Xposition Yposition Zposition Zrotation Xrotation Yrotation
            JOINT LowerArm_R
            {
              OFFSET -24.3289 0.000322201 0
              CHANNELS 6 Xposition Yposition Zposition Zrotation Xrotation Yrotation
              JOINT Hand_R
              {
                OFFSET -22.2915 -0.000108084 0
                CHANNELS 6 Xposition Yposition Zposition Zrotation Xrotation Yrotation
                End Site
                {
                  OFFSET 0 0 0
                }
              }
            }
          }
        }
      }
    }
    JOINT UpperLeg_L
    {
      OFFSET -2.19248 -6.46944 0
      CHANNELS 6 Xposition Yposition Zposition Zrotation Xrotation Yrotation
      JOINT LowerLeg_L
      {
        OFFSET 39.0811 0 -1.23785e-05
        CHANNELS 6 Xposition Yposition Zposition Zrotation Xrotation Yrotation
        JOINT Foot_L
        {
          OFFSET 40.9854 0 -1.26872e-05
          CHANNELS 6 Xposition Yposition Zposition Zrotation Xrotation Yrotation
          JOINT Toes_L
          {
            OFFSET 11.7543 0 0
            CHANNELS 6 Xposition Yposition Zposition Zrotation Xrotation Yrotation
            End Site
            {
              OFFSET 0 0 0
            }
          }
        }
      }
    }
    JOINT UpperLeg_R
    {
      OFFSET -2.19251 6.46944 0
      CHANNELS 6 Xposition Yposition Zposition Zrotation Xrotation Yrotation
      JOINT LowerLeg_R
      {
        OFFSET -39.0811 -0.00228153 -0.0401928
        CHANNELS 6 Xposition Yposition Zposition Zrotation Xrotation Yrotation
        JOINT Foot_R
        {
          OFFSET -40.9854 0 0
          CHANNELS 6 Xposition Yposition Zposition Zrotation Xrotation Yrotation
          JOINT Toes_R
          {
            OFFSET -11.7543 0 0
            CHANNELS 6 Xposition Yposition Zposition Zrotation Xrotation Yrotation
            End Site
            {
              OFFSET 0 0 0
            }
          }
        }
      }
    }
  }
}
MOTION
Frames:	7
Frame Time:	0.0333333
0 0 0 0 0 -0 -118.886 86.0686 -378.422 93.43 3.18241 -14.7169 15.7357 5.1072e-06 -5.51764e-07 86.6563 73.993 -87.3917 8.98455 -0.406207 -4.3199e-07 24.1906 -1.91206 -1.06985 16.3773 -1.3905e-06 -6.99897e-07 -8.90823 -2.00181 -1.96027 6.45672 -1.25837e-06 -1.02172e-07 -9.15807 -4.4701 1.45282 12.9942 -0.242716 4.98039 -89.7463 -4.76806 -101.944 5.34809 -7.22636e-06 -6.2814e-07 -80.1589 4.22691 -9.70778 24.3286 1.87007e-05 4.90208e-06 27.7114 -0.740492 -91.4039 22.2916 -9.88446e-07 4.63217e-06 8.80968 5.20103 2.69798 12.9945 -0.242716 -4.98039 90.024 -0.546607 -102.466 -5.34813 -1.25947e-06 -3.79883e-06 -76.4379 -5.67362 10.9067 -24.3289 0.000322201 -8.65921e-06 19.0757 8.89442 -65.9052 -22.2915 -0.000108084 -4.47941e-06 38.707 5.68182 -20.7427 -2.19248 -6.46944 -1.22534e-07 170.757 0.939097 -32.4886 39.0811 -6.73843e-06 -1.23785e-05 0.400236 -0.335718 47.1527 40.9854 -6.48686e-06 -1.26872e-05 6.81912 -0.735298 -79.4383 11.7543 -2.30145e-07 3.05095e-06 -0.0104542 0.00890518 -16.5771 -2.19251 6.46944 -1.45247e-06 179.098 -0.482808 137.537 -39.0811 -0.00228153 -0.0401928 -0.628708 0.0680341 82.437 -40.9854 7.72618e-06 5.99936e-06 8.9993 -17.7118 -39.4988 -11.7543 -5.6619e-06 -5.58687e-06 0.590571 -0.666407 -21.5302 
0 0 0 0 0 -0 -119.169 86.5826 -370.855 91.7084 3.69468 -15.3054 15.7357 5.1072e-06 -5.51765e-07 85.655 74.203 -85.4352 8.98455 -0.406207 -4.3199e-07 23.7554 -2.28916 0.923676 16.3773 -1.3905e-06 -6.99897e-07 -9.89872 -1.72127 -3.46041 6.45672 -1.25837e-06 -1.02172e-07 -7.82763 -3.41123 1.07388 12.9942 -0.242716 4.98039 -89.8612 -7.19417 -103.889 5.34809 -7.22636e-06 -6.2814e-07 -81.449 6.20264 -19.3125 24.3286 1.87007e-05 4.90208e-06 25.4948 -3.63691 -97.5891 22.2916 -9.88446e-07 4.63217e-06 8.00148 5.16333 3.62271 12.9945 -0.242716 -4.98039 90.0643 -0.838951 -100.626 -5.34813 -1.25947e-06 -3.79883e-06 -72.5869 -8.31583 21.1144 -24.3289 0.000322201 -8.65921e-06 9.05329 3.96855 -66.5502 -22.2915 -0.000108084 -4.47941e-06 41.8012 5.68107 -19.9928 -2.19248 -6.46944 -1.22534e-07 173.155 -1.78493 -24.7534 39.0811 -6.73843e-06 -1.23785e-05 0.313098 -0.322076 41.8382 40.9854 -6.48686e-06 -1.26872e-05 7.24196 2.06113 -82.869 11.7543 -2.30145e-07 3.05095e-06 0.00954788 -0.0106024 -16.6815 -2.19251 6.46944 -1.45247e-06 -179.579 -2.06904 131.404 -39.0811 -0.00228153 -0.0401928 -0.603165 0.106544 78.5462 -40.9854 7.72618e-06 5.99936e-06 10.2342 -22.8855 -45.1018 -11.7543 -5.6619e-06 -5.58687e-06 0.491251 -0.54595 -20.6619 
0 0 0 0 0 -0 -119.685 88.1619 -363.306 89.0221 2.46433 -16.46 15.7357 5.1072e-06 -5.51765e-07 84.269 74.7459 -83.3067 8.98455 -0.406207 -4.3199e-07 22.6351 -2.83663 2.5018 16.3773 -1.3905e-06 -6.99897e-07 -8.79725 -0.323378 -3.86461 6.45672 -1.25837e-06 -1.02172e-07 -7.46951 -1.38024 -0.651974 12.9942 -0.242716 4.98039 -89.8329 -8.48707 -103.868 5.34809 -7.22636e-06 -6.2814e-07 -84.0295 6.55407 -23.758 24.3286 1.87007e-05 4.90207e-06 19.1441 -5.08982 -104.346 22.2916 -9.88446e-07 4.63217e-06 10.2313 5.16545 3.57403 12.9945 -0.242716 -4.98039 90.1486 -2.05985 -100.87 -5.34813 -1.25947e-06 -3.79883e-06 -71.276 -12.6048 28.625 -24.3289 0.000322201 -8.65921e-06 7.90955 2.57873 -72.057 -22.2915 -0.000108084 -4.47941e-06 40.1317 5.6806 -19.8059 -2.19248 -6.46944 -1.22533e-07 176.39 -6.45069 -17.6366 39.0811 -6.73843e-06 -1.23785e-05 0.33109 -0.476274 34.1715 40.9854 -6.48686e-06 -1.26872e-05 7.61988 5.71358 -77.1864 11.7543 -2.30145e-07 3.05095e-06 0.475292 -0.654844 -23.9126 -2.19251 6.46944 -1.45247e-06 -177.937 -5.17363 128.474 -39.0811 -0.00228153 -0.0401928 -0.418684 0.176391 65.5145 -40.9854 7.72618e-06 5.99936e-06 8.87333 -25.5361 -51.8718 -11.7543 -5.6619e-06 -5.58687e-06 0.456361 -0.504474 -20.3604 
0 0 0 0 0 -0 -120.302 89.9727 -355.879 87.3322 1.0774 -18.4788 15.7357 5.1072e-06 -5.51765e-07 83.477 75.4248 -82.3364 8.98455 -0.406207 -4.3199e-07 21.2508 -3.09532 2.87116 16.3773 -1.3905e-06 -6.99897e-07 -8.02482 0.7401 -4.53649 6.45672 -1.25837e-06 -1.02172e-07 -7.14568 -0.325557 -0.288309 12.9942 -0.242716 4.98039 -89.7255 -8.25758 -103.089 5.34809 -7.22636e-06 -6.2814e-07 -83.1991 8.76835 -24.6346 24.3286 1.87007e-05 4.90208e-06 19.4798 -7.43357 -110.085 22.2916 -9.88446e-07 4.63217e-06 10.4582 5.22458 2.07101 12.9945 -0.242716 -4.98039 90.1193 -2.07305 -101.707 -5.34813 -1.25947e-06 -3.79883e-06 -72.0859 -14.8979 31.6169 -24.3289 0.000322201 -8.65921e-06 7.621 1.96904 -75.6032 -22.2915 -0.000108084 -4.47941e-06 37.7899 5.68093 -20.286 -2.19248 -6.46944 -1.22533e-07 179.559 -8.27372 -16.3988 39.0811 -6.73843e-06 -1.23785e-05 0.0245129 -0.0308424 32.7145 40.9854 -6.48686e-06 -1.26872e-05 0.782616 9.20885 -60.4353 11.7543 -2.30145e-07 3.05095e-06 3.67586 -0.638767 -39.8934 -2.19251 6.46944 -1.45247e-06 -176.851 -6.9353 129.67 -39.0811 -0.00228153 -0.0401928 -0.196033 0.19121 43.4564 -40.9854 7.72618e-06 5.99936e-06 7.05329 -25.7741 -56.4162 -11.7543 -5.6619e-06 -5.58687e-06 0.404041 -0.443162 -19.9121 
0 0 0 0 0 -0 -120.847 90.8191 -347.972 87.5596 1.05599 -18.6677 15.7357 5.1072e-06 -5.51765e-07 83.0777 75.2544 -81.8556 8.98455 -0.406207 -4.3199e-07 21.5739 -3.31658 3.08675 16.3773 -1.3905e-06 -6.99897e-07 -8.15056 0.828803 -5.91088 6.45672 -1.25837e-06 -1.02172e-07 -7.67716 -0.577517 0.660549 12.9942 -0.242716 4.98039 -89.6876 -7.15244 -102.492 5.34809 -7.22636e-06 -6.2814e-07 -82.1843 11.6927 -22.3458 24.3286 1.87007e-05 4.90208e-06 19.5768 -8.37722 -112.277 22.2916 -9.88446e-07 4.63217e-06 8.88035 5.30019 0.0640599 12.9945 -0.242716 -4.98039 90.0847 -1.93233 -102.489 -5.34813 -1.25947e-06 -3.79883e-06 -74.3627 -14.8492 29.834 -24.3289 0.000322201 -8.65921e-06 8.19673 2.04132 -76.114 -22.2915 -0.000108084 -4.47941e-06 36.6622 5.68118 -22.0909 -2.19248 -6.46944 -1.22534e-07 -179.19 -3.10128 -16.4219 39.0811 -6.73843e-06 -1.23785e-05 -0.0375322 0.051715 36.8974 40.9854 -6.48686e-06 -1.26872e-05 0.15769 9.33308 -46.1808 11.7543 -2.30145e-07 3.05095e-06 1.61733 -2.76695 -40.0659 -2.19251 6.46944 -1.45247e-06 -175.723 -4.86808 136.184 -39.0811 -0.00228153 -0.0401928 -0.0373685 0.0774284 20.0818 -40.9854 7.72618e-06 5.99936e-06 -0.0962276 -22.1094 -60.2782 -11.7543 -5.6619e-06 -5.58687e-06 0.393843 -0.43132 -19.8251 
0 0 0 0 0 -0 -121.458 90.0801 -339.528 88.3696 1.27174 -17.766 15.7357 5.1072e-06 -5.51765e-07 85.1008 75.0161 -83.8858 8.98455 -0.406207 -4.3199e-07 22.1325 -2.33882 2.8985 16.3773 -1.3905e-06 -6.99897e-07 -7.74629 0.394859 -7.53712 6.45672 -1.25837e-06 -1.02172e-07 -8.12431 -2.52087 2.26632 12.9942 -0.242716 4.98039 -89.7251 -6.07372 -102.404 5.34809 -7.22636e-06 -6.2814e-07 -82.036 13.1561 -17.9603 24.3286 1.87007e-05 4.90208e-06 18.9057 -6.67336 -108.745 22.2916 -9.88446e-07 4.63217e-06 8.52488 5.32214 -0.557339 12.9945 -0.242716 -4.98039 90.0455 -1.5672 -103.338 -5.34813 -1.25947e-06 -3.79883e-06 -76.4412 -12.5665 25.1716 -24.3289 0.000322201 -8.65921e-06 6.46564 1.77018 -74.7492 -22.2915 -0.000108084 -4.47941e-06 37.771 5.67892 -23.0855 -2.19248 -6.46944 -1.22533e-07 -178.194 3.8031 -19.8181 39.0811 -6.73843e-06 -1.23785e-05 -0.121471 0.100856 48.6372 40.9854 -6.48686e-06 -1.26872e-05 -6.14638 9.28639 -36.009 11.7543 -2.30145e-07 3.05095e-06 0.538893 -0.667319 -22.8289 -2.19251 6.46944 -1.45247e-06 -173.844 -2.77993 137.491 -39.0811 -0.00228153 -0.0401928 -0.000451369 -0.00366789 16.7928 -40.9854 7.72618e-06 5.99936e-06 1.71384 -20.88 -58.927 -11.7543 -5.6619e-06 -5.58687e-06 0.430692 -0.474272 -20.1399 
0 0 0 0 0 -0 -122.447 88.0499 -331.226 87.7518 1.94119 -17.6166 15.7357 5.1072e-06 -5.51765e-07 90.1874 75.4251 -88.6265 8.98455 -0.406207 -4.3199e-07 21.3818 0.27731 3.08173 16.3773 -1.3905e-06 -6.99897e-07 -8.14596 -0.536056 -6.79869 6.45672 -1.25837e-06 -1.02172e-07 -7.05999 -5.00892 1.96193 12.9942 -0.242716 4.98039 -89.8024 -5.04535 -102.755 5.34809 -7.22636e-06 -6.2814e-07 -83.0919 11.1915 -11.5969 24.3286 1.87007e-05 4.90208e-06 20.5547 -4.22768 -101.121 22.2916 -9.88446e-07 4.63217e-06 7.41871 5.31813 -0.442716 12.9945 -0.242716 -4.98039 90.0065 -0.308208 -103.804 -5.34813 -1.25947e-06 -3.79883e-06 -76.5143 -9.48785 18.4731 -24.3289 0.000322201 -8.65921e-06 3.62955 1.12821 -72.7663 -22.2915 -0.000108084 -4.47941e-06 41.058 5.67427 -24.1951 -2.19248 -6.46944 -1.22533e-07 -175.763 5.32695 -27.4301 39.0811 -6.73843e-06 -1.23785e-05 -0.300828 0.137865 63.7715 40.9854 -6.48686e-06 -1.26872e-05 -5.67181 9.28275 -30.5335 11.7543 -2.30145e-07 3.05095e-06 0.423417 -0.51129 -21.4153 -2.19251 6.46944 -1.45247e-06 -170.626 -0.438153 132.884 -39.0811 -0.00228153 -0.0401928 0.0452565 -0.0603332 31.1481 -40.9854 7.72618e-06 5.99936e-06 7.08597 -18.7709 -52.0039 -11.7543 -5.6619e-06 -5.58687e-06 0.223584 -0.238788 -18.3949 
